<svg width="20" height="20" viewBox="0 0 20 20" fill="none" xmlns="http://www.w3.org/2000/svg">
<path d="M7.19004 10.5613H6.80757C5.57113 10.5613 4.9529 10.5613 4.68938 10.1537C4.42587 9.74607 4.67695 9.17817 5.17912 8.04235L6.68882 4.62769C7.14539 3.595 7.37368 3.07865 7.81656 2.78933C8.25944 2.5 8.82153 2.5 9.94572 2.5H11.6869C13.0526 2.5 13.7354 2.5 13.993 2.94613C14.2505 3.39225 13.9117 3.98823 13.2342 5.18019L12.3409 6.75156C12.0041 7.34412 11.8357 7.64041 11.838 7.88294C11.8411 8.19812 12.0087 8.48849 12.2794 8.64753C12.4877 8.76991 12.8272 8.76991 13.5061 8.76991C14.3644 8.76991 14.7935 8.76991 15.017 8.91847C15.3074 9.11149 15.4593 9.45682 15.4061 9.80265C15.3651 10.0688 15.0764 10.388 14.4991 11.0264L9.88647 16.1269C8.9805 17.1287 8.52751 17.6297 8.22331 17.4711C7.91911 17.3126 8.06519 16.6518 8.35736 15.3301L8.92964 12.7413C9.15211 11.735 9.26335 11.2318 8.99583 10.8966C8.72832 10.5613 8.21556 10.5613 7.19004 10.5613Z" stroke="#70CD1C" stroke-linejoin="round"/>
</svg>
