<svg width="28" height="28" viewBox="0 0 28 28" fill="none" xmlns="http://www.w3.org/2000/svg">
<path d="M7.56226 18.5005C7.56226 21.7116 7.56226 23.3172 8.55982 24.3147C9.55739 25.3123 11.1629 25.3123 14.3741 25.3123C17.5852 25.3123 19.1907 25.3123 20.1883 24.3147C20.8346 23.6684 21.0622 22.7668 21.1423 21.3387M21.1662 13.9593L21.1859 12.824C21.1859 9.61287 21.1859 8.00732 20.1883 7.00975C19.1907 6.01219 17.5852 6.01219 14.3741 6.01219C11.1629 6.01219 9.55738 6.01219 8.55982 7.00975C7.75681 7.81277 7.6002 9.00975 7.56966 11.121" stroke="#70CD1C" stroke-width="1.45967" stroke-linecap="round"/>
<path d="M7.56226 14.4562L12.5992 17.8287C13.3792 18.351 13.7692 18.6122 14.0716 18.4552C14.3741 18.2982 14.3741 17.8347 14.3741 16.9076L14.3741 15.5522C14.3741 14.6251 14.3741 14.1615 14.6765 14.0046C14.9789 13.8476 15.3689 14.1088 16.1489 14.631L21.1859 18.0036" stroke="#70CD1C" stroke-width="1.45967" stroke-linecap="round"/>
<path d="M11.5356 6.01219L11.73 4.846C11.8589 4.07254 11.9234 3.68581 12.1108 3.39238C12.2953 3.10374 12.5624 2.87742 12.8774 2.74297C13.1977 2.60629 13.5898 2.60629 14.3739 2.60629C15.158 2.60629 15.5501 2.60629 15.8703 2.74297C16.1854 2.87742 16.4525 3.10374 16.6369 3.39238C16.8244 3.68581 16.8889 4.07254 17.0178 4.846L17.2121 6.01219" stroke="#70CD1C" stroke-width="1.45967" stroke-linecap="round"/>
</svg>
